<svg t="1687942374744" class="icon" viewBox="0 0 1024 1024" version="1.1" xmlns="http://www.w3.org/2000/svg" p-id="2933"
    xmlns:xlink="http://www.w3.org/1999/xlink" width="200" height="200">
    <path
        d="M511.784001 1023.989c-48.219784 0-93.959579-11.354949-138.842378-34.602845a76.926655 76.926655 0 0 1-108.900512-29.699867 77.269654 77.269654 0 0 1-21.396904 3.002987 76.937655 76.937655 0 0 1-72.424675-51.31377 77.119654 77.119654 0 0 1-4.306981 0.113999 76.240658 76.240658 0 0 1-54.284756-22.492899 77.211654 77.211654 0 0 1-13.776939-18.665916 76.879655 76.879655 0 0 1-72.253676-76.640657V742.511262a76.149659 76.149659 0 0 1 19.556913-51.189771C19.759206 657.510643 0.008295 613.55184 0.008295 550.597122c0.08-5.779974 1.381994-50.869772 22.755898-98.927557 10.017955-22.515899 28.135874-44.894799 54.009758-66.7257v-42.266811A152.789315 152.789315 0 0 1 12.802238 217.942613c0-84.659621 68.872691-153.533312 153.532311-153.533312h51.177771v102.355541h2.387989a138.842378 138.842378 0 0 1-2.387989-25.589885 140.738369 140.738369 0 1 1 264.798813 66.029704 209.942059 209.942059 0 0 1 58.944736 0 140.681369 140.681369 0 1 1 262.422824-40.439819h2.375989V64.409301h51.177771c84.659621 0 153.543312 68.872691 153.543311 153.533312a152.813315 152.813315 0 0 1-63.971713 124.733441v42.266811c25.862884 21.829902 43.979803 44.197802 53.999758 66.7367 21.383904 48.047785 22.674898 93.136583 22.754898 98.128561 0 63.514715-19.750911 107.644517-45.145798 141.503365a76.149659 76.149659 0 0 1 19.568913 51.199771v51.17877a76.879655 76.879655 0 0 1-72.231677 76.639657 77.074655 77.074655 0 0 1-68.061695 41.125815c-1.438994 0-2.877987 0-4.29498-0.114999a76.971655 76.971655 0 0 1-93.85558 48.287784 76.879655 76.879655 0 0 1-108.912511 29.700866c-44.882799 23.304896-90.622594 34.659845-138.841378 34.659845z"
        fill="#25467A" p-id="2934"></path>
    <path
        d="M179.129492 409.857753V281.914326a25.588885 25.588885 0 0 0-51.177771 0v127.943427a25.588885 25.588885 0 0 0 51.177771 0z m204.710082-63.971713V217.942613a25.588885 25.588885 0 1 0-51.17777 0v127.943427a25.588885 25.588885 0 1 0 51.17777 0z m307.065624 0V217.942613a25.588885 25.588885 0 1 0-51.177771 0v127.943427a25.588885 25.588885 0 1 0 51.177771 0z m204.709082 63.971713V281.914326a25.588885 25.588885 0 0 0-51.17677 0v127.943427a25.588885 25.588885 0 1 0 51.17777 0z"
        fill="#FAAD96" p-id="2935"></path>
    <path
        d="M939.298085 724.417343l-36.177838-36.189838-36.189838 36.189838 28.684871 28.695871v40.576818a25.599885 25.599885 0 0 0 51.188771 0V742.511262a25.508886 25.508886 0 0 0-7.504966-18.094919zM709.412115 906.188528l-90.474594-90.462594a25.581885 25.581885 0 0 0-36.178838 36.177837l90.463594 90.474595a25.589885 25.589885 0 1 0 36.189838-36.189838z m89.606598-38.382828l-90.474594-90.463594a25.581885 25.581885 0 1 0-36.178838 36.178837l90.463595 90.519595a25.589885 25.589885 0 0 0 36.189837-36.189838z m76.765656-51.17777l-90.462594-90.462595a25.602885 25.602885 0 1 0-36.189838 36.223838l90.509594 90.429594a25.589885 25.589885 0 0 0 36.189838-36.189837zM84.267917 724.417343l36.189838-36.189838 36.189838 36.189838-28.695872 28.695871v40.576818a25.588885 25.588885 0 0 1-51.17777 0V742.511262a25.554885 25.554885 0 0 1 7.493966-18.094919z m229.88797 181.771185l90.474594-90.462594a25.588885 25.588885 0 0 1 36.189838 36.177837l-90.474594 90.474595a25.589885 25.589885 0 1 1-36.189838-36.189838z m-89.606599-38.382828l90.474595-90.463594a25.588885 25.588885 0 1 1 36.189838 36.178837l-90.474595 90.519595a25.589885 25.589885 0 1 1-36.189838-36.189838z m-76.765655-51.17777l90.474594-90.462595a25.602885 25.602885 0 0 1 36.189838 36.223838l-90.520594 90.429594a25.589885 25.589885 0 0 1-36.189838-36.189837z"
        fill="#E65800" p-id="2936"></path>
    <path
        d="M639.727427 307.503212c-83.471626-33.39185-76.766656-51.177771-127.943426-51.177771s-44.460801 17.78592-127.944427 51.177771C212.486343 343.303051 94.641871 416.026725 69.521983 472.470472a222.976001 222.976001 0 0 0-18.277918 78.12565c0 115.93748 81.232636 149.934328 151.933319 222.234004 84.408622 86.304613 170.199237 199.981104 308.607617 199.981103s224.198995-113.67649 308.641617-199.981103c70.722683-72.299676 151.933319-106.239524 151.933318-222.234004a223.148 223.148 0 0 0-18.346917-78.12565C928.926131 416.003725 811.080659 343.304051 639.727427 307.503212z"
        fill="#FE6100" p-id="2937"></path>
    <path
        d="M972.392936 550.596122c0 115.91548-81.244636 149.945328-152.002318 222.245004-84.442621 86.225614-170.165237 199.969104-308.606617 199.969103S287.630006 859.067739 203.187384 772.841126C154.181604 722.80635 100.055847 691.083492 71.531974 637.723731c94.815575 103.771535 231.189964 168.760244 382.688285 168.760244 227.48898 0 420.685114-146.495343 490.414802-350.31443a99.167555 99.167555 0 0 1 9.469957 16.254927 224.826992 224.826992 0 0 1 18.288918 78.17165z"
        fill="#F25D00" p-id="2938"></path>
    <path
        d="M511.784001 550.596122a64.051713 64.051713 0 0 1-63.972713-63.971713 12.793943 12.793943 0 1 1 25.589885 0 38.382828 38.382828 0 0 0 76.765656 0 12.793943 12.793943 0 1 1 25.588885 0 64.039713 64.039713 0 0 1-63.971713 63.971713z"
        fill="#25467A" p-id="2939"></path>
    <path
        d="M332.661804 448.241581h-51.177771a25.588885 25.588885 0 1 0 0 51.17677h51.177771a25.588885 25.588885 0 1 0 0-51.17677z m409.421165 0h-51.177771a25.588885 25.588885 0 1 0 0 51.17677h51.177771a25.588885 25.588885 0 0 0 0-51.17677z"
        fill="#E62325" p-id="2940"></path>
    <path d="M268.691091 141.175957a89.560599 89.560599 0 1 0 179.120197 0 89.560599 89.560599 0 1 0-179.121197 0z"
        fill="#FFFFFF" p-id="2941"></path>
    <path d="M319.867861 141.175957a38.382828 38.382828 0 1 0 76.765656 0 38.382828 38.382828 0 1 0-76.765656 0z"
        fill="#25467A" p-id="2942"></path>
    <path d="M268.691091 217.942613a102.355541 102.355541 0 1 1-102.356542-102.355541v102.355541z" fill="#FE6100"
        p-id="2943"></path>
    <path d="M575.755714 141.175957a89.560599 89.560599 0 1 0 179.121197 0 89.560599 89.560599 0 1 0-179.121197 0z"
        fill="#FFFFFF" p-id="2944"></path>
    <path d="M626.933485 141.175957a38.382828 38.382828 0 1 0 76.765656 0 38.382828 38.382828 0 1 0-76.765656 0z"
        fill="#25467A" p-id="2945"></path>
    <path d="M754.876911 217.942613a102.366541 102.366541 0 1 0 102.355542-102.355541v102.355541z" fill="#FE6100"
        p-id="2946"></path>
</svg>