<svg xmlns="http://www.w3.org/2000/svg" xml:space="preserve" width="149.344mm" height="88.0942mm" version="1.1"
    style="shape-rendering:geometricPrecision; text-rendering:geometricPrecision; image-rendering:optimizeQuality; fill-rule:evenodd; clip-rule:evenodd"
    viewBox="0 0 13066 7707" xmlns:xlink="http://www.w3.org/1999/xlink">
    <defs>
        <style type="text/css">
            <![CDATA[
            .str0 {
                stroke: black;
                stroke-width: 32.2562;
                stroke-linecap: round;
                stroke-linejoin: round
            }

            .fil1 {
                fill: none
            }

            .fil0 {
                fill: #EEEEEE;
                fill-opacity: 0.501961
            }
            ]]>
        </style>
    </defs>
    <g id="图层_x0020_1">
        <metadata id="CorelCorpID_0Corel-Layer" />
        <g id="_1826195972496">
            <g id="高淳区" data-spm-anchor-id="a2crr.b71357980.area-selector.i11.578a26c0kzi9cj">
                <path class="fil0"
                    d="M10629 1918l-69 103 -207 -69 -104 104 -34 -104 -104 -69 -380 69 -104 -69 34 -173 -69 -69 -207 207 -173 -34 -69 -138 -208 207 -103 35 -173 -173 -242 0 -415 449 69 380 -34 104 -104 69 -138 381 -104 69 -69 -69 -208 -277 35 -104 -208 0 -103 242 -104 35 35 34 -70 0 35 35 -69 69 -35 -34 -138 69 -173 -104 -69 -104 0 -138 -104 -104 -276 -103 -138 -381 -173 -242 -173 -484 -242 -380 -899 -1141 -346 1141 69 830 -449 829 -69 0 -242 208 -69 138 -173 138 -726 242 -415 0 -311 173 -104 -34 69 -450 -138 -242 -242 69 -242 381 -277 829 -345 657 -35 795 -380 -242 -69 0 -35 104 173 69 553 484 69 -34 692 103 484 484 69 139 -69 311 34 173 173 207 415 173 138 -104 0 -69 139 0 103 -69 139 173 207 34 138 -173 311 -138 484 -69 70 69 484 69 311 -34 276 -173 104 0 69 104 104 34 311 0 207 138 173 -69 622 35 70 -69 69 34 69 173 138 35 311 -104 381 -242 103 104 277 69 138 -69 69 103 173 35 138 0 173 -138 173 34 138 139 70 0 103 -35 69 -173 208 104 346 34 34 -449 138 -207 208 -139 276 0 139 -138 103 -276 208 -35 207 -519 381 70 103 -70 69 -138 208 -69 0 -138 69 -70 138 -34 -69 -277 104 -103 0 -173 242 -346 276 -242 -103 -207 -242 -35 -104 -346 -242 -311 -207 -69 -208 35 -138 -381 0 -1037 -69 -173 -519 346 -34 104 34 -35 35 104 -208 35 -69 -70 35 -34 -173 34 0 -103 -208 -69zm1107 -312l-35 -207 -242 69 -173 -138 -173 -35 -103 104 -173 -35 -104 139 -104 415 208 69 69 -242 -35 -104 70 -69 172 69 35 242 69 35 -69 34 69 0 519 -346z" />
                <path class="fil1 str0"
                    d="M10629 1918l-69 103 -207 -69 -104 104 -34 -104 -104 -69 -380 69 -104 -69 34 -173 -69 -69 -207 207 -173 -34 -69 -138 -208 207 -103 35 -173 -173 -242 0 -415 449 69 380 -34 104 -104 69 -138 381 -104 69 -69 -69 -208 -277 35 -104 -208 0 -103 242 -104 35 35 34 -70 0 35 35 -69 69 -35 -34 -138 69 -173 -104 -69 -104 0 -138 -104 -104 -276 -103 -138 -381 -173 -242 -173 -484 -242 -380 -899 -1141 -346 1141 69 830 -449 829 -69 0 -242 208 -69 138 -173 138 -726 242 -415 0 -311 173 -104 -34 69 -450 -138 -242 -242 69 -242 381 -277 829 -345 657 -35 795 -380 -242 -69 0 -35 104 173 69 553 484 69 -34 692 103 484 484 69 139 -69 311 34 173 173 207 415 173 138 -104 0 -69 139 0 103 -69 139 173 207 34 138 -173 311 -138 484 -69 70 69 484 69 311 -34 276 -173 104 0 69 104 104 34 311 0 207 138 173 -69 622 35 70 -69 69 34 69 173 138 35 311 -104 381 -242 103 104 277 69 138 -69 69 103 173 35 138 0 173 -138 173 34 138 139 70 0 103 -35 69 -173 208 104 346 34 34 -449 138 -207 208 -139 276 0 139 -138 103 -276 208 -35 207 -519 381 70 103 -70 69 -138 208 -69 0 -138 69 -70 138 -34 -69 -277 104 -103 0 -173 242 -346 276 -242 -103 -207 -242 -35 -104 -346 -242 -311 -207 -69 -208 35 -138 -381 0 -1037 -69 -173 -519 346 -34 104 34 -35 35 104 -208 35 -69 -70 35 -34 -173 34 0 -103 -208 -69zm1107 -312l-35 -207 -242 69 -173 -138 -173 -35 -103 104 -173 -35 -104 139 -104 415 208 69 69 -242 -35 -104 70 -69 172 69 35 242 69 35 -69 34 69 0 519 -346z" />
            </g>
        </g>
    </g>
</svg>